{
  "asset": {
    "version": "2.0",
    "generator": "resium storybook fixture"
  },
  "scene": 0,
  "scenes": [
    {
      "nodes": [
        0
      ]
    }
  ],
  "nodes": [
    {
      "mesh": 0
    }
  ],
  "meshes": [
    {
      "primitives": [
        {
          "attributes": {
            "POSITION": 0
          },
          "mode": 0
        }
      ]
    }
  ],
  "accessors": [
    {
      "bufferView": 0,
      "componentType": 5126,
      "count": 144,
      "type": "VEC3",
      "min": [
        -66.0,
        0.0,
        -66.0
      ],
      "max": [
        66.0,
        0.0,
        66.0
      ]
    }
  ],
  "bufferViews": [
    {
      "buffer": 0,
      "byteLength": 1728
    }
  ],
  "buffers": [
    {
      "byteLength": 1728,
      "uri": "data:application/octet-stream;base64,"
    }
  ]
}
